<svg width="220" height="56" viewBox="0 0 220 56" fill="none" xmlns="http://www.w3.org/2000/svg">
  <defs>
    <linearGradient id="signinMark" x1="8" y1="8" x2="48" y2="48" gradientUnits="userSpaceOnUse">
      <stop stop-color="#114B5F"/>
      <stop offset="1" stop-color="#2F6F80"/>
    </linearGradient>
  </defs>
  <rect x="2" y="2" width="52" height="52" rx="14" fill="url(#signinMark)"/>
  <path d="M16 30L26 40L40 20" stroke="white" stroke-width="4" stroke-linecap="round" stroke-linejoin="round"/>
  <path d="M72 21.5H89.5V26.2H77.8V31.1H88.5V35.8H77.8V42H72V21.5Z" fill="#0F2A36"/>
  <path d="M93 42V21.5H98.8V42H93Z" fill="#0F2A36"/>
  <path d="M103 42V21.5H109.1L118.2 35.4V21.5H123.8V42H117.9L108.6 27.6V42H103Z" fill="#0F2A36"/>
  <path d="M127 42L134.8 21.5H141.8L149.6 42H143.6L142.1 37.6H134.3L132.8 42H127ZM135.7 33.4H140.7L138.2 26.1L135.7 33.4Z" fill="#0F2A36"/>
  <path d="M152.8 21.5H159.4C162 21.5 164 22.2 165.4 23.5C166.8 24.8 167.5 26.4 167.5 28.4C167.5 30.6 166.7 32.4 165 33.8C163.3 35.2 160.9 35.9 157.7 35.9H158.6V42H152.8V21.5ZM158.6 31.5H159.5C160.6 31.5 161.5 31.2 162.1 30.7C162.7 30.2 163 29.5 163 28.6C163 27.7 162.7 27 162.1 26.5C161.5 26 160.7 25.7 159.6 25.7H158.6V31.5Z" fill="#0F2A36"/>
  <path d="M170.2 42V21.5H176V42H170.2Z" fill="#0F2A36"/>
  <path d="M179.4 42V21.5H185.2V37.1H194.2V42H179.4Z" fill="#0F2A36"/>
  <path d="M197.1 42V21.5H202.9V42H197.1Z" fill="#0F2A36"/>
  <path d="M205.7 31.8C205.7 25.7 210.3 21.1 216.3 21.1C217.8 21.1 219 21.4 220 21.9V27.5C218.8 26.6 217.6 26.2 216.4 26.2C213.3 26.2 211.5 28.7 211.5 31.8C211.5 34.9 213.3 37.4 216.4 37.4C217.7 37.4 218.9 36.9 220 36V41.6C218.9 42.2 217.6 42.5 216 42.5C210.2 42.5 205.7 37.9 205.7 31.8Z" fill="#0F2A36"/>
</svg>
